<?xml version="1.0" standalone="no"?><!-- Generator: Gravit.io --><svg xmlns="http://www.w3.org/2000/svg" xmlns:xlink="http://www.w3.org/1999/xlink" style="isolation:isolate" viewBox="0 0 1920 1200" width="1920" height="1200"><defs><clipPath id="_clipPath_PybIfTmUfk6BTKMcZSWniAEEnYtlpMPU"><rect x="0" y="0" width="1920" height="1200"/></clipPath></defs><g clip-path="url(#_clipPath_PybIfTmUfk6BTKMcZSWniAEEnYtlpMPU)"><g><rect x="0" y="0" width="1920" height="1200" transform="matrix(1,0,0,1,0,0)" fill="rgb(99,227,129)"/><rect x="0" y="600" width="1920" height="600" transform="matrix(1,0,0,1,0,0)" fill="rgb(168,255,189)"/><path d=" M 1008.725 600.848 L 1110.669 572.146 L 1872.995 459.719 L 1380.673 496.126 L 1859.23 361.388 L 1103.689 516.609 L 996.039 524.57 L 805.667 538.648 L 156.693 339.855 L 144.128 402.188 L 132.003 462.336 L 131.842 462.309 L 131.674 463.964 L 131.562 464.52 L 131.617 464.533 L 125.421 525.871 L 119 589.434 L 119.084 589.442 L 124.388 653.119 L 129.686 716.712 L 128.995 716.854 L 140.466 779.466 L 151.937 842.078 L 810.286 656.719 L 994.642 674.663 L 1085.744 683.53 L 1855.22 860.145 L 1368.488 711.05 L 1870.285 759.891 L 1094.291 627.059 L 1008.725 600.848 Z " fill-rule="evenodd" fill="rgb(128,242,158)"/><path d=" M 340.739 414.18 L 328.645 371.223 L 281.272 50 L 296.612 257.451 L 239.838 55.8 L 305.243 374.164 L 308.598 419.525 L 314.53 499.743 L 230.764 773.203 L 257.029 778.497 L 282.374 783.606 L 282.363 783.674 L 283.06 783.745 L 283.294 783.792 L 283.3 783.769 L 309.146 786.38 L 335.93 789.085 L 335.933 789.05 L 362.765 786.815 L 389.561 784.583 L 389.621 784.874 L 416.004 780.04 L 442.387 775.207 L 364.282 497.796 L 371.843 420.114 L 375.579 381.726 L 450 57.49 L 387.176 262.585 L 407.756 51.142 L 351.784 378.125 L 340.739 414.18 Z " fill-rule="evenodd" fill="rgb(128,242,158)"/></g></g></svg>