<?xml version="1.0" standalone="no"?><!-- Generator: Gravit.io --><svg xmlns="http://www.w3.org/2000/svg" xmlns:xlink="http://www.w3.org/1999/xlink" style="isolation:isolate" viewBox="0 0 1267 1193.064" width="1267" height="1193.064"><defs><clipPath id="_clipPath_2pcdMwf6B7GEze9AQzftiGY3cN5m09P1"><rect width="1267" height="1193.064"/></clipPath></defs><g clip-path="url(#_clipPath_2pcdMwf6B7GEze9AQzftiGY3cN5m09P1)"><rect width="1267" height="1193.064" style="fill:rgb(55,53,53)"/><rect x="-48" y="-26" width="1336" height="1252" transform="matrix(1,0,0,1,0,0)" fill="none"/><g><clipPath id="_clipPath_94EjqcKJ25X7kGjDw2ip8NsMBw3dOvEi"><path d=" M -1588 -1548 L -1588 1604.627 L 1760 1604.627 L 1760 -1548 L -1588 -1548 Z " fill="rgb(255,255,255)"/></clipPath><g clip-path="url(#_clipPath_94EjqcKJ25X7kGjDw2ip8NsMBw3dOvEi)"><g><path d=" M 622.732 232.861 C 412.466 232.861 241.961 403.326 241.961 613.624 C 241.961 781.859 351.063 924.589 502.354 974.939 C 521.385 978.464 528.372 966.678 528.372 956.621 C 528.372 947.542 528.018 917.547 527.854 885.729 C 421.923 908.763 399.57 840.802 399.57 840.802 C 382.249 796.792 357.294 785.088 357.294 785.088 C 322.746 761.457 359.897 761.94 359.897 761.94 C 398.133 764.62 418.266 801.181 418.266 801.181 C 452.227 859.392 507.343 842.562 529.072 832.832 C 532.489 808.228 542.356 791.42 553.246 781.917 C 468.671 772.288 379.765 739.638 379.765 593.737 C 379.765 552.166 394.64 518.2 418.998 491.534 C 415.045 481.937 402.012 443.214 422.687 390.767 C 422.687 390.767 454.661 380.533 527.426 429.799 C 557.798 421.361 590.372 417.131 622.732 416.985 C 655.091 417.131 687.691 421.361 718.119 429.799 C 790.795 380.533 822.726 390.767 822.726 390.767 C 843.451 443.214 830.413 481.937 826.46 491.534 C 850.874 518.2 865.648 552.166 865.648 593.737 C 865.648 739.987 776.571 772.188 691.782 781.613 C 705.441 793.431 717.609 816.602 717.609 852.128 C 717.609 903.069 717.168 944.072 717.168 956.621 C 717.168 966.752 724.023 978.628 743.323 974.888 C 894.533 924.481 1003.497 781.804 1003.497 613.624 C 1003.497 403.326 833.016 232.861 622.732 232.861 Z " fill-rule="evenodd" fill="rgb(254,254,254)"/></g></g><clipPath id="_clipPath_lipPkgvZFn69eOlLty8qddqjgGMCpQRK"><path d=" M -1588 -1548 L -1588 1604.627 L 1760 1604.627 L 1760 -1548 L -1588 -1548 Z " fill="rgb(255,255,255)"/></clipPath><g clip-path="url(#_clipPath_lipPkgvZFn69eOlLty8qddqjgGMCpQRK)"><g><path d=" M 386.178 779.558 C 385.341 781.458 382.363 782.018 379.652 780.718 C 376.89 779.476 375.339 776.897 376.235 774.999 C 377.054 773.052 380.037 772.515 382.793 773.808 C 385.56 775.057 387.138 777.66 386.178 779.558 L 386.178 779.558 Z " fill="rgb(254,254,254)"/></g></g><clipPath id="_clipPath_ic8kPfmXhTHS94n3NZE5hkXIfZCjrvJ2"><path d=" M -1588 -1548 L -1588 1604.627 L 1760 1604.627 L 1760 -1548 L -1588 -1548 Z " fill="rgb(255,255,255)"/></clipPath><g clip-path="url(#_clipPath_ic8kPfmXhTHS94n3NZE5hkXIfZCjrvJ2)"><g><path d=" M 401.603 796.76 C 399.784 798.443 396.236 797.661 393.826 795 C 391.337 792.344 390.869 788.796 392.711 787.086 C 394.584 785.403 398.027 786.193 400.524 788.846 C 403.014 791.533 403.5 795.058 401.603 796.76 L 401.603 796.76 Z " fill="rgb(254,254,254)"/></g></g><clipPath id="_clipPath_hQ7IzpP16QLykpnH4AwskEN2a9crlruM"><path d=" M -1588 -1548 L -1588 1604.627 L 1760 1604.627 L 1760 -1548 L -1588 -1548 Z " fill="rgb(255,255,255)"/></clipPath><g clip-path="url(#_clipPath_hQ7IzpP16QLykpnH4AwskEN2a9crlruM)"><g><path d=" M 416.614 818.69 C 414.281 820.31 410.468 818.79 408.108 815.405 C 405.775 812.018 405.775 807.959 408.158 806.331 C 410.523 804.703 414.281 806.167 416.672 809.528 C 418.998 812.964 418.998 817.03 416.614 818.69 L 416.614 818.69 Z " fill="rgb(254,254,254)"/></g></g><clipPath id="_clipPath_CJsuSSqNHBKnbwAKca9zMNNHheM2YZEP"><path d=" M -1588 -1548 L -1588 1604.627 L 1760 1604.627 L 1760 -1548 L -1588 -1548 Z " fill="rgb(255,255,255)"/></clipPath><g clip-path="url(#_clipPath_CJsuSSqNHBKnbwAKca9zMNNHheM2YZEP)"><g><path d=" M 437.183 839.877 C 435.096 842.179 430.651 841.56 427.396 838.418 C 424.069 835.348 423.141 830.991 425.234 828.689 C 427.345 826.382 431.816 827.032 435.096 830.148 C 438.399 833.21 439.408 837.599 437.183 839.877 L 437.183 839.877 Z " fill="rgb(254,254,254)"/></g></g><clipPath id="_clipPath_lSup8fe4sY6OWZaKUQSs19fAnFe7jt2T"><path d=" M -1588 -1548 L -1588 1604.627 L 1760 1604.627 L 1760 -1548 L -1588 -1548 Z " fill="rgb(255,255,255)"/></clipPath><g clip-path="url(#_clipPath_lSup8fe4sY6OWZaKUQSs19fAnFe7jt2T)"><g><path d=" M 465.558 852.178 C 464.636 855.161 460.355 856.517 456.043 855.248 C 451.735 853.943 448.916 850.45 449.788 847.437 C 450.684 844.435 454.983 843.022 459.327 844.377 C 463.626 845.677 466.451 849.144 465.558 852.178 L 465.558 852.178 Z " fill="rgb(254,254,254)"/></g></g><clipPath id="_clipPath_j9zFbPiPo7z6hXsaf3WQUJqp1OXGegF8"><path d=" M -1588 -1548 L -1588 1604.627 L 1760 1604.627 L 1760 -1548 L -1588 -1548 Z " fill="rgb(255,255,255)"/></clipPath><g clip-path="url(#_clipPath_j9zFbPiPo7z6hXsaf3WQUJqp1OXGegF8)"><g><path d=" M 496.718 854.461 C 496.826 857.6 493.169 860.206 488.64 860.256 C 484.09 860.361 480.406 857.822 480.356 854.73 C 480.356 851.559 483.931 848.98 488.484 848.906 C 493.011 848.817 496.718 851.34 496.718 854.461 L 496.718 854.461 Z " fill="rgb(254,254,254)"/></g></g><clipPath id="_clipPath_SLxQADDQApP7PQ4Ere19tRo3a2oKuxKA"><path d=" M -1588 -1548 L -1588 1604.627 L 1760 1604.627 L 1760 -1548 L -1588 -1548 Z " fill="rgb(255,255,255)"/></clipPath><g clip-path="url(#_clipPath_SLxQADDQApP7PQ4Ere19tRo3a2oKuxKA)"><g><path d=" M 525.716 849.522 C 526.258 852.587 523.114 855.735 518.616 856.567 C 514.198 857.381 510.105 855.489 509.544 852.45 C 508.995 849.308 512.197 846.164 516.613 845.35 C 521.113 844.567 525.143 846.409 525.716 849.522 L 525.716 849.522 Z " fill="rgb(254,254,254)"/></g></g></g></g></svg>