<?xml version="1.0" standalone="no"?><!-- Generator: Gravit.io --><svg xmlns="http://www.w3.org/2000/svg" xmlns:xlink="http://www.w3.org/1999/xlink" style="isolation:isolate" viewBox="0 0 18 18" width="18" height="18"><defs><clipPath id="_clipPath_6UnkjE6CRti0AFqGPkl5e3GziGpJ0EGA"><rect width="18" height="18"/></clipPath></defs><g clip-path="url(#_clipPath_6UnkjE6CRti0AFqGPkl5e3GziGpJ0EGA)"><clipPath id="_clipPath_WNaem2jF7gKtPbQKItlYrJe12W0XZ2f7"><rect x="-0.558" y="0" width="19.115" height="18" transform="matrix(1,0,0,1,0,0)" fill="rgb(255,255,255)"/></clipPath><g clip-path="url(#_clipPath_WNaem2jF7gKtPbQKItlYrJe12W0XZ2f7)"><g><rect x="-0.558" y="0" width="19.115" height="18" transform="matrix(1,0,0,1,0,0)" fill="rgb(55,53,53)"/><rect x="-1.282" y="-0.392" width="20.157" height="18.889" transform="matrix(1,0,0,1,0,0)" fill="none"/><g><clipPath id="_clipPath_zu66QwhTrKKnAaWI7ICOyz6VXj6U6MnP"><path d=" M -24.516 -23.355 L -24.516 24.209 L 25.996 24.209 L 25.996 -23.355 L -24.516 -23.355 Z " fill="rgb(255,255,255)"/></clipPath><g clip-path="url(#_clipPath_zu66QwhTrKKnAaWI7ICOyz6VXj6U6MnP)"><g><g><path d=" M 8.838 3.513 C 5.665 3.513 3.093 6.085 3.093 9.258 C 3.093 11.796 4.739 13.949 7.021 14.709 C 7.308 14.762 7.414 14.584 7.414 14.433 C 7.414 14.296 7.409 13.843 7.406 13.363 C 5.808 13.711 5.471 12.685 5.471 12.685 C 5.209 12.021 4.833 11.845 4.833 11.845 C 4.312 11.488 4.872 11.496 4.872 11.496 C 5.449 11.536 5.753 12.088 5.753 12.088 C 6.265 12.966 7.097 12.712 7.424 12.565 C 7.476 12.194 7.625 11.94 7.789 11.797 C 6.513 11.652 5.172 11.159 5.172 8.958 C 5.172 8.331 5.396 7.818 5.764 7.416 C 5.704 7.271 5.507 6.687 5.819 5.896 C 5.819 5.896 6.302 5.741 7.4 6.484 C 7.858 6.357 8.349 6.293 8.838 6.291 C 9.326 6.293 9.818 6.357 10.277 6.484 C 11.373 5.741 11.855 5.896 11.855 5.896 C 12.168 6.687 11.971 7.271 11.911 7.416 C 12.28 7.818 12.502 8.331 12.502 8.958 C 12.502 11.164 11.159 11.65 9.879 11.792 C 10.085 11.971 10.269 12.32 10.269 12.856 C 10.269 13.625 10.262 14.243 10.262 14.433 C 10.262 14.586 10.366 14.765 10.657 14.708 C 12.938 13.948 14.582 11.795 14.582 9.258 C 14.582 6.085 12.01 3.513 8.838 3.513 Z " fill-rule="evenodd" fill="rgb(254,254,254)"/></g></g></g><clipPath id="_clipPath_wRwwnwAclumXZZO8pQG8LpjY0XaOtaYO"><path d=" M -24.516 -23.355 L -24.516 24.209 L 25.996 24.209 L 25.996 -23.355 L -24.516 -23.355 Z " fill="rgb(255,255,255)"/></clipPath><g clip-path="url(#_clipPath_wRwwnwAclumXZZO8pQG8LpjY0XaOtaYO)"><g><g><path d=" M 5.269 11.761 C 5.256 11.79 5.211 11.798 5.17 11.779 C 5.128 11.76 5.105 11.721 5.119 11.693 C 5.131 11.663 5.176 11.655 5.218 11.675 C 5.259 11.693 5.283 11.733 5.269 11.761 L 5.269 11.761 Z " fill="rgb(254,254,254)"/></g></g></g><clipPath id="_clipPath_6GvUnsODrBZlncbDR5vIgnFwB3Z0B8O2"><path d=" M -24.516 -23.355 L -24.516 24.209 L 25.996 24.209 L 25.996 -23.355 L -24.516 -23.355 Z " fill="rgb(255,255,255)"/></clipPath><g clip-path="url(#_clipPath_6GvUnsODrBZlncbDR5vIgnFwB3Z0B8O2)"><g><g><path d=" M 5.501 12.021 C 5.474 12.046 5.42 12.034 5.384 11.994 C 5.346 11.954 5.339 11.901 5.367 11.875 C 5.395 11.85 5.447 11.861 5.485 11.901 C 5.523 11.942 5.53 11.995 5.501 12.021 L 5.501 12.021 Z " fill="rgb(254,254,254)"/></g></g></g><clipPath id="_clipPath_hmMAFp5DhMdFMyuLFVGzTyrdoqLvKGqJ"><path d=" M -24.516 -23.355 L -24.516 24.209 L 25.996 24.209 L 25.996 -23.355 L -24.516 -23.355 Z " fill="rgb(255,255,255)"/></clipPath><g clip-path="url(#_clipPath_hmMAFp5DhMdFMyuLFVGzTyrdoqLvKGqJ)"><g><g><path d=" M 5.728 12.352 C 5.693 12.376 5.635 12.353 5.599 12.302 C 5.564 12.251 5.564 12.19 5.6 12.165 C 5.636 12.141 5.693 12.163 5.729 12.214 C 5.764 12.265 5.764 12.327 5.728 12.352 L 5.728 12.352 Z " fill="rgb(254,254,254)"/></g></g></g><clipPath id="_clipPath_z9fWIwTMWjHSS3as6o29nZHmEMTxdKRw"><path d=" M -24.516 -23.355 L -24.516 24.209 L 25.996 24.209 L 25.996 -23.355 L -24.516 -23.355 Z " fill="rgb(255,255,255)"/></clipPath><g clip-path="url(#_clipPath_z9fWIwTMWjHSS3as6o29nZHmEMTxdKRw)"><g><g><path d=" M 6.038 12.671 C 6.007 12.706 5.94 12.697 5.89 12.649 C 5.84 12.603 5.826 12.537 5.858 12.503 C 5.89 12.468 5.957 12.478 6.007 12.525 C 6.056 12.571 6.072 12.637 6.038 12.671 L 6.038 12.671 Z " fill="rgb(254,254,254)"/></g></g></g><clipPath id="_clipPath_Xj7rCZJOzZ7XxHZnWlgrwav8sLSAt2ND"><path d=" M -24.516 -23.355 L -24.516 24.209 L 25.996 24.209 L 25.996 -23.355 L -24.516 -23.355 Z " fill="rgb(255,255,255)"/></clipPath><g clip-path="url(#_clipPath_Xj7rCZJOzZ7XxHZnWlgrwav8sLSAt2ND)"><g><g><path d=" M 6.466 12.857 C 6.452 12.902 6.388 12.922 6.323 12.903 C 6.258 12.884 6.215 12.831 6.228 12.785 C 6.242 12.74 6.307 12.719 6.372 12.739 C 6.437 12.759 6.48 12.811 6.466 12.857 L 6.466 12.857 Z " fill="rgb(254,254,254)"/></g></g></g><clipPath id="_clipPath_qiLcgo629xGT2cQXD55xi5gGoIpRAZkc"><path d=" M -24.516 -23.355 L -24.516 24.209 L 25.996 24.209 L 25.996 -23.355 L -24.516 -23.355 Z " fill="rgb(255,255,255)"/></clipPath><g clip-path="url(#_clipPath_qiLcgo629xGT2cQXD55xi5gGoIpRAZkc)"><g><g><path d=" M 6.936 12.891 C 6.938 12.939 6.883 12.978 6.814 12.979 C 6.746 12.98 6.69 12.942 6.689 12.895 C 6.689 12.848 6.743 12.809 6.812 12.808 C 6.88 12.806 6.936 12.844 6.936 12.891 L 6.936 12.891 Z " fill="rgb(254,254,254)"/></g></g></g><clipPath id="_clipPath_M5y7ZiJ1FimFJQ9gorwKyeqeP9neLiso"><path d=" M -24.516 -23.355 L -24.516 24.209 L 25.996 24.209 L 25.996 -23.355 L -24.516 -23.355 Z " fill="rgb(255,255,255)"/></clipPath><g clip-path="url(#_clipPath_M5y7ZiJ1FimFJQ9gorwKyeqeP9neLiso)"><g><g><path d=" M 7.374 12.817 C 7.382 12.863 7.335 12.911 7.267 12.923 C 7.2 12.935 7.138 12.907 7.13 12.861 C 7.122 12.814 7.17 12.766 7.237 12.754 C 7.304 12.742 7.365 12.77 7.374 12.817 L 7.374 12.817 Z " fill="rgb(254,254,254)"/></g></g></g></g></g></g></g></svg>