<?xml version="1.0" standalone="no"?><!-- Generator: Gravit.io --><svg xmlns="http://www.w3.org/2000/svg" xmlns:xlink="http://www.w3.org/1999/xlink" style="isolation:isolate" viewBox="0 0 23.455 18" width="23.455" height="18"><defs><clipPath id="_clipPath_bkULao0RhM8hqY23pFPkUsadQTPkOHEi"><rect width="23.455" height="18"/></clipPath></defs><g clip-path="url(#_clipPath_bkULao0RhM8hqY23pFPkUsadQTPkOHEi)"><g><clipPath id="_clipPath_li5UTnVHSDzCSU1MYDiPllErXzkReuXt"><path d=" M 18 0 L 0 0 L 0 18 L 18 18" fill="rgb(255,255,255)"/></clipPath><g clip-path="url(#_clipPath_li5UTnVHSDzCSU1MYDiPllErXzkReuXt)"><path d=" M 16.667 0 L 1.327 0 C 0.595 0 0 0.581 0 1.298 L 0 16.701 C 0 17.418 0.595 18 1.327 18 L 16.667 18 C 17.401 18 17.999 17.418 17.999 16.701 L 17.999 1.298 C 17.999 0.581 17.401 0 16.667 0 Z " fill="rgb(0,128,183)"/></g><clipPath id="_clipPath_tFHEmsxF2OPmleVBprnyOxh2jPFrxTQK"><path d=" M 18 18 L 23.455 18 L 23.455 0 L 18 0" fill="rgb(255,255,255)"/></clipPath><g clip-path="url(#_clipPath_tFHEmsxF2OPmleVBprnyOxh2jPFrxTQK)"><path d=" M 16.667 0 L 1.327 0 C 0.595 0 0 0.581 0 1.298 L 0 16.701 C 0 17.418 0.595 18 1.327 18 L 16.667 18 C 17.401 18 17.999 17.418 17.999 16.701 L 17.999 1.298 C 17.999 0.581 17.401 0 16.667 0 Z " fill="rgb(0,128,183)"/></g></g><g><clipPath id="_clipPath_YiSvCxJ3uB42NoKt3PNB5qfJ8Vl2xw5Y"><path d=" M 18 0 L 0 0 L 0 18 L 18 18" fill="rgb(255,255,255)"/></clipPath><g clip-path="url(#_clipPath_YiSvCxJ3uB42NoKt3PNB5qfJ8Vl2xw5Y)"><path d=" M 4.004 2.478 C 4.857 2.478 5.551 3.172 5.551 4.026 C 5.551 4.881 4.857 5.575 4.004 5.575 C 3.146 5.575 2.454 4.881 2.454 4.026 C 2.454 3.172 3.146 2.478 4.004 2.478 Z  M 2.666 6.748 L 5.339 6.748 L 5.339 15.338 L 2.666 15.338 L 2.666 6.748 Z " fill="rgb(254,254,254)"/></g><clipPath id="_clipPath_fY6OZagnArRfF8QnNIwQ8bFcqA174eTB"><path d=" M 18 18 L 23.455 18 L 23.455 0 L 18 0" fill="rgb(255,255,255)"/></clipPath><g clip-path="url(#_clipPath_fY6OZagnArRfF8QnNIwQ8bFcqA174eTB)"><path d=" M 4.004 2.478 C 4.857 2.478 5.551 3.172 5.551 4.026 C 5.551 4.881 4.857 5.575 4.004 5.575 C 3.146 5.575 2.454 4.881 2.454 4.026 C 2.454 3.172 3.146 2.478 4.004 2.478 Z  M 2.666 6.748 L 5.339 6.748 L 5.339 15.338 L 2.666 15.338 L 2.666 6.748 Z " fill="rgb(254,254,254)"/></g></g><g><clipPath id="_clipPath_e0uuvMwecTZjrT7viCjDF5qHFQZkaMls"><line x1="18" y1="18" x2="18" y2="18"/></clipPath><g clip-path="url(#_clipPath_e0uuvMwecTZjrT7viCjDF5qHFQZkaMls)"><path d=" M 7.014 6.748 L 9.572 6.748 L 9.572 7.922 L 9.609 7.922 C 9.966 7.247 10.836 6.535 12.135 6.535 C 14.839 6.535 15.338 8.313 15.338 10.627 L 15.338 15.338 L 12.669 15.338 L 12.669 11.16 C 12.669 10.164 12.651 8.883 11.281 8.883 C 9.893 8.883 9.681 9.969 9.681 11.089 L 9.681 15.338 L 7.014 15.338 L 7.014 6.748 Z " fill="rgb(254,254,254)"/></g><clipPath id="_clipPath_sQehLmojb9EtKPezOiPakjYMf3CaUUiL"><path d=" M 18 0 L 0 0 L 0 18 L 18 18" fill="rgb(255,255,255)"/></clipPath><g clip-path="url(#_clipPath_sQehLmojb9EtKPezOiPakjYMf3CaUUiL)"><path d=" M 7.014 6.748 L 9.572 6.748 L 9.572 7.922 L 9.609 7.922 C 9.966 7.247 10.836 6.535 12.135 6.535 C 14.839 6.535 15.338 8.313 15.338 10.627 L 15.338 15.338 L 12.669 15.338 L 12.669 11.16 C 12.669 10.164 12.651 8.883 11.281 8.883 C 9.893 8.883 9.681 9.969 9.681 11.089 L 9.681 15.338 L 7.014 15.338 L 7.014 6.748 Z " fill="rgb(254,254,254)"/></g></g><clipPath id="_clipPath_Ntl6B0gngSOVL65JlKNICCEtObyYCSk4"><path d=" M 18 18 L 23.455 18 L 23.455 0 L 18 0" fill="rgb(255,255,255)"/></clipPath><g clip-path="url(#_clipPath_Ntl6B0gngSOVL65JlKNICCEtObyYCSk4)"><path d=" M 7.014 6.748 L 9.572 6.748 L 9.572 7.922 L 9.609 7.922 C 9.966 7.247 10.836 6.535 12.135 6.535 C 14.839 6.535 15.338 8.313 15.338 10.627 L 15.338 15.338 L 12.669 15.338 L 12.669 11.16 C 12.669 10.164 12.651 8.883 11.281 8.883 C 9.893 8.883 9.681 9.969 9.681 11.089 L 9.681 15.338 L 7.014 15.338 L 7.014 6.748 Z " fill="rgb(254,254,254)"/></g></g></svg>